<svg xmlns="http://www.w3.org/2000/svg" viewBox="0 0 800 212" width="800" height="212" role="img" aria-hidden="true"><defs><radialGradient id="g5" cx="50%" cy="50%" r="50%"><stop offset="0%" stop-color="#2E9BFF" stop-opacity=".38"></stop><stop offset="100%" stop-color="#2E9BFF" stop-opacity="0"></stop></radialGradient></defs><circle cx="400" cy="106.0" r="86" fill="url(#g5)"></circle><path d="M122.0 54.0 L241.0 54.0 L241.0 106.0 L360.0 106.0" fill="none" stroke="#16294a" stroke-width="2" stroke-linecap="round" stroke-linejoin="round"></path><circle cx="122.0" cy="54.0" r="3.2" fill="#3BA5FF"></circle><circle cx="360.0" cy="106.0" r="3.2" fill="#5BB6FF"></circle><path d="M122.0 158.0 L241.0 158.0 L241.0 106.0 L360.0 106.0" fill="none" stroke="#16294a" stroke-width="2" stroke-linecap="round" stroke-linejoin="round"></path><circle cx="122.0" cy="158.0" r="3.2" fill="#3BA5FF"></circle><circle cx="360.0" cy="106.0" r="3.2" fill="#5BB6FF"></circle><path d="M440.0 106.0 L559.0 106.0 L559.0 54.0 L678.0 54.0" fill="none" stroke="#16294a" stroke-width="2" stroke-linecap="round" stroke-linejoin="round"></path><circle cx="440.0" cy="106.0" r="3.2" fill="#5BB6FF"></circle><circle cx="678.0" cy="54.0" r="3.2" fill="#3BA5FF"></circle><path d="M440.0 106.0 L559.0 106.0 L559.0 158.0 L678.0 158.0" fill="none" stroke="#16294a" stroke-width="2" stroke-linecap="round" stroke-linejoin="round"></path><circle cx="440.0" cy="106.0" r="3.2" fill="#5BB6FF"></circle><circle cx="678.0" cy="158.0" r="3.2" fill="#3BA5FF"></circle><rect x="58.0" y="22.0" width="64" height="64" rx="14" fill="#0A1A33" stroke="#16294a" stroke-width="1.4"></rect><g transform="translate(79.0,43.0) scale(0.9167)"><g fill="none" stroke="#5BB6FF" stroke-width="1.855" stroke-linecap="round" stroke-linejoin="round"><rect x="6" y="4" width="12" height="17" rx="2"></rect><path d="M9 4V3a1 1 0 0 1 1-1h4a1 1 0 0 1 1 1v1"></path><path d="M9 11h6M9 15h6"></path></g></g><rect x="58.0" y="126.0" width="64" height="64" rx="14" fill="#0A1A33" stroke="#16294a" stroke-width="1.4"></rect><g transform="translate(79.0,147.0) scale(0.9167)"><g fill="none" stroke="#5BB6FF" stroke-width="1.855" stroke-linecap="round" stroke-linejoin="round"><path d="M17 8a6 6 0 1 0 0 8"></path><path d="M4 10h9M4 14h9"></path></g></g><circle cx="400" cy="106.0" r="46" fill="#0C1E3C" stroke="#1E5FD0" stroke-width="1.6"></circle><circle cx="400" cy="106.0" r="46" fill="none" stroke="#2E9BFF" stroke-width="1" stroke-opacity=".5"></circle><g transform="translate(387.0,93.0) scale(1.0833)"><g fill="none" stroke="#FFFFFF" stroke-width="1.477" stroke-linecap="round" stroke-linejoin="round"><circle cx="10.5" cy="10.5" r="6.5"></circle><path d="M20 20l-4.35-4.35"></path></g></g><rect x="678.0" y="22.0" width="64" height="64" rx="14" fill="#DD7A33" stroke="#DD7A33" stroke-width="1.4"></rect><g transform="translate(699.0,43.0) scale(0.9167)"><g fill="none" stroke="#FFFFFF" stroke-width="1.855" stroke-linecap="round" stroke-linejoin="round"><path d="M5 12.5l4.5 4.5L19 7"></path></g></g><rect x="678.0" y="126.0" width="64" height="64" rx="14" fill="#0A1A33" stroke="#16294a" stroke-width="1.4"></rect><g transform="translate(699.0,147.0) scale(0.9167)"><g fill="none" stroke="#5BB6FF" stroke-width="1.855" stroke-linecap="round" stroke-linejoin="round"><path d="M10.3 3.9L2.6 17.5a1.6 1.6 0 0 0 1.4 2.4h16a1.6 1.6 0 0 0 1.4-2.4L13.7 3.9a1.6 1.6 0 0 0-2.8 0z"></path><path d="M12 9v4M12 17h.01"></path></g></g></svg>