<svg xmlns="http://www.w3.org/2000/svg" viewBox="0 0 800 212" width="800" height="212" role="img" aria-hidden="true"><defs><radialGradient id="dd-glow" cx="50%" cy="50%" r="50%"><stop offset="0%" stop-color="#2E9BFF" stop-opacity=".32"></stop><stop offset="100%" stop-color="#2E9BFF" stop-opacity="0"></stop></radialGradient><linearGradient id="dd-core" x1="0%" y1="0%" x2="100%" y2="100%"><stop offset="0%" stop-color="#1E5FD0"></stop><stop offset="100%" stop-color="#5BB6FF"></stop></linearGradient></defs><ellipse cx="400" cy="184" rx="200" ry="5.5" fill="#000814" opacity="0.10"></ellipse><circle cx="400" cy="106" r="62" fill="url(#dd-glow)"></circle><path d="M112 60 L300 60 L300 88 L370 88" fill="none" stroke="#3BA5FF" stroke-width="2" stroke-linecap="round" stroke-linejoin="round"></path><path d="M112 106 L370 106" fill="none" stroke="#5BB6FF" stroke-width="2" stroke-linecap="round" stroke-linejoin="round"></path><path d="M112 152 L300 152 L300 124 L370 124" fill="none" stroke="#3BA5FF" stroke-width="2" stroke-linecap="round" stroke-linejoin="round"></path><path d="M430 88 L500 88 L500 60 L688 60" fill="none" stroke="#3BA5FF" stroke-width="2" stroke-linecap="round" stroke-linejoin="round"></path><path d="M430 106 L688 106" fill="none" stroke="#5BB6FF" stroke-width="2" stroke-linecap="round" stroke-linejoin="round"></path><path d="M430 124 L500 124 L500 152 L688 152" fill="none" stroke="#3BA5FF" stroke-width="2" stroke-linecap="round" stroke-linejoin="round"></path><circle cx="112" cy="60" r="3.6" fill="none" stroke="#3BA5FF" stroke-width="1.51"></circle><circle cx="112" cy="60" r="1.30" fill="#3BA5FF"></circle><circle cx="112" cy="106" r="3.6" fill="none" stroke="#3BA5FF" stroke-width="1.51"></circle><circle cx="112" cy="106" r="1.30" fill="#3BA5FF"></circle><circle cx="112" cy="152" r="3.6" fill="none" stroke="#3BA5FF" stroke-width="1.51"></circle><circle cx="112" cy="152" r="1.30" fill="#3BA5FF"></circle><circle cx="688" cy="60" r="3.6" fill="none" stroke="#3BA5FF" stroke-width="1.51"></circle><circle cx="688" cy="60" r="1.30" fill="#3BA5FF"></circle><circle cx="688" cy="106" r="3.6" fill="none" stroke="#3BA5FF" stroke-width="1.51"></circle><circle cx="688" cy="106" r="1.30" fill="#3BA5FF"></circle><circle cx="688" cy="152" r="3.6" fill="none" stroke="#3BA5FF" stroke-width="1.51"></circle><circle cx="688" cy="152" r="1.30" fill="#3BA5FF"></circle><circle cx="370" cy="88" r="2.2" fill="none" stroke="#5BB6FF" stroke-width="0.92"></circle><circle cx="370" cy="88" r="0.79" fill="#5BB6FF"></circle><circle cx="370" cy="124" r="2.2" fill="none" stroke="#5BB6FF" stroke-width="0.92"></circle><circle cx="370" cy="124" r="0.79" fill="#5BB6FF"></circle><circle cx="430" cy="88" r="2.2" fill="none" stroke="#5BB6FF" stroke-width="0.92"></circle><circle cx="430" cy="88" r="0.79" fill="#5BB6FF"></circle><circle cx="430" cy="124" r="2.2" fill="none" stroke="#5BB6FF" stroke-width="0.92"></circle><circle cx="430" cy="124" r="0.79" fill="#5BB6FF"></circle><rect x="68.0" y="38.0" width="44" height="44" rx="12" fill="#0A1A33" stroke="#5BB6FF" stroke-width="1.5"></rect><path d="M80 48 L94 48 L100 54 L100 72 L80 72 Z" fill="none" stroke="#FFFFFF" stroke-width="1.8" stroke-linejoin="round"></path><path d="M94 48 L94 54 L100 54" fill="none" stroke="#FFFFFF" stroke-width="1.8" stroke-linejoin="round"></path><line x1="84" y1="61" x2="95" y2="61" stroke="#FFFFFF" stroke-width="1.4" stroke-linecap="round" opacity=".75"></line><line x1="84" y1="66" x2="95" y2="66" stroke="#FFFFFF" stroke-width="1.4" stroke-linecap="round" opacity=".75"></line><rect x="68.0" y="84.0" width="44" height="44" rx="12" fill="#0A1A33" stroke="#5BB6FF" stroke-width="1.5"></rect><rect x="79" y="97" width="22" height="18" rx="3" fill="none" stroke="#5BB6FF" stroke-width="1.3" opacity=".4"></rect><line x1="79" y1="106" x2="101" y2="106" stroke="#5BB6FF" stroke-width="2"></line><line x1="83" y1="102" x2="92" y2="102" stroke="#FFFFFF" stroke-width="1.3" stroke-linecap="round" opacity=".55"></line><line x1="83" y1="110" x2="95" y2="110" stroke="#FFFFFF" stroke-width="1.3" stroke-linecap="round" opacity=".55"></line><rect x="68.0" y="130.0" width="44" height="44" rx="12" fill="#0A1A33" stroke="#5BB6FF" stroke-width="1.5"></rect><line x1="80" y1="143" x2="98" y2="143" stroke="#FFFFFF" stroke-width="1.6" stroke-linecap="round" opacity=".65"></line><line x1="80" y1="150" x2="92" y2="150" stroke="#FFFFFF" stroke-width="1.6" stroke-linecap="round" opacity=".45"></line><line x1="80" y1="157" x2="100" y2="157" stroke="#FFFFFF" stroke-width="1.6" stroke-linecap="round" opacity=".55"></line><line x1="80" y1="164" x2="89" y2="164" stroke="#FFFFFF" stroke-width="1.6" stroke-linecap="round" opacity=".35"></line><rect x="688.0" y="38.0" width="44" height="44" rx="12" fill="#0A1A33" stroke="#5BB6FF" stroke-width="1.5"></rect><rect x="699" y="49" width="10" height="10" rx="2" fill="#5BB6FF" opacity="0.9"></rect><rect x="711" y="49" width="10" height="10" rx="2" fill="#5BB6FF" opacity="0.3"></rect><rect x="699" y="61" width="10" height="10" rx="2" fill="#5BB6FF" opacity="0.3"></rect><rect x="711" y="61" width="10" height="10" rx="2" fill="#5BB6FF" opacity="0.85"></rect><rect x="699" y="73" width="10" height="0" rx="2"></rect><rect x="688.0" y="84.0" width="44" height="44" rx="12" fill="#0A1A33" stroke="#5BB6FF" stroke-width="1.5"></rect><circle cx="710" cy="106" r="11" fill="none" stroke="#5BCB8B" stroke-width="1.8"></circle><path d="M705 106.5 L708.5 110 L715.5 101.5" fill="none" stroke="#5BCB8B" stroke-width="2" stroke-linecap="round" stroke-linejoin="round"></path><rect x="688.0" y="130.0" width="44" height="44" rx="12" fill="#0A1A33" stroke="#5BB6FF" stroke-width="1.5"></rect><rect x="700" y="152" width="4.5" height="10" rx="1.5" fill="#5BB6FF" opacity="0.5"></rect><rect x="706" y="147" width="4.5" height="15" rx="1.5" fill="#5BB6FF" opacity="0.7"></rect><rect x="712" y="142" width="4.5" height="20" rx="1.5" fill="#5BB6FF" opacity="1.0"></rect><rect x="718" y="149" width="4.5" height="13" rx="1.5" fill="#5BB6FF" opacity="0.8"></rect><rect x="370" y="76" width="60" height="60" rx="16" fill="#0A1A33" stroke="url(#dd-core)" stroke-width="2.2"></rect><path d="M400 90 L400 102" fill="none" stroke="#FFFFFF" stroke-width="2" stroke-linecap="round"></path><path d="M386 117 L396 110" fill="none" stroke="#FFFFFF" stroke-width="2" stroke-linecap="round"></path><path d="M414 117 L404 110" fill="none" stroke="#FFFFFF" stroke-width="2" stroke-linecap="round"></path><circle cx="400" cy="90" r="2.4" fill="none" stroke="#5BB6FF" stroke-width="1.01"></circle><circle cx="400" cy="90" r="0.86" fill="#5BB6FF"></circle><circle cx="386" cy="117" r="2.4" fill="none" stroke="#5BB6FF" stroke-width="1.01"></circle><circle cx="386" cy="117" r="0.86" fill="#5BB6FF"></circle><circle cx="414" cy="117" r="2.4" fill="none" stroke="#5BB6FF" stroke-width="1.01"></circle><circle cx="414" cy="117" r="0.86" fill="#5BB6FF"></circle><circle cx="400" cy="106" r="4.2" fill="none" stroke="#FFFFFF" stroke-width="1.6"></circle><circle cx="400" cy="106" r="1.6" fill="#FFFFFF"></circle></svg>